<mxfile host="65bd71144e">
    <diagram id="cFiXvALZksI0QIa7OpRT" name="Page-1">
        <mxGraphModel dx="880" dy="645" grid="0" gridSize="10" guides="1" tooltips="1" connect="1" arrows="1" fold="1" page="1" pageScale="1" pageWidth="850" pageHeight="1100" math="0" shadow="0">
            <root>
                <mxCell id="0"/>
                <mxCell id="1" parent="0"/>
                <mxCell id="X6bT7JPRpj6-fWHqidIX-1" value="AWS Cloud" style="points=[[0,0],[0.25,0],[0.5,0],[0.75,0],[1,0],[1,0.25],[1,0.5],[1,0.75],[1,1],[0.75,1],[0.5,1],[0.25,1],[0,1],[0,0.75],[0,0.5],[0,0.25]];outlineConnect=0;gradientColor=none;html=1;whiteSpace=wrap;fontSize=12;fontStyle=0;shape=mxgraph.aws4.group;grIcon=mxgraph.aws4.group_aws_cloud_alt;strokeColor=#232F3E;fillColor=none;verticalAlign=top;align=left;spacingLeft=30;fontColor=#232F3E;dashed=0;" parent="1" vertex="1">
                    <mxGeometry x="170" y="70" width="410" height="340" as="geometry"/>
                </mxCell>
                <mxCell id="X6bT7JPRpj6-fWHqidIX-5" value="&lt;font style=&quot;font-size: 16px&quot;&gt;Immunotec Sunrise Portal Current State&lt;/font&gt;" style="text;html=1;strokeColor=none;fillColor=none;align=center;verticalAlign=middle;whiteSpace=wrap;rounded=0;" parent="1" vertex="1">
                    <mxGeometry x="249" y="10" width="301" height="50" as="geometry"/>
                </mxCell>
                <mxCell id="X6bT7JPRpj6-fWHqidIX-14" value="Load Balancer" style="text;html=1;strokeColor=none;fillColor=none;align=center;verticalAlign=middle;whiteSpace=wrap;rounded=0;" parent="1" vertex="1">
                    <mxGeometry x="209" y="170" width="40" height="20" as="geometry"/>
                </mxCell>
                <mxCell id="X6bT7JPRpj6-fWHqidIX-15" value="Application Server" style="text;html=1;strokeColor=none;fillColor=none;align=center;verticalAlign=middle;whiteSpace=wrap;rounded=0;" parent="1" vertex="1">
                    <mxGeometry x="310" y="170" width="40" height="20" as="geometry"/>
                </mxCell>
                <mxCell id="X6bT7JPRpj6-fWHqidIX-16" value="Cache" style="text;html=1;strokeColor=none;fillColor=none;align=center;verticalAlign=middle;whiteSpace=wrap;rounded=0;" parent="1" vertex="1">
                    <mxGeometry x="485" y="108.5" width="80" height="20" as="geometry"/>
                </mxCell>
                <mxCell id="X6bT7JPRpj6-fWHqidIX-20" value="" style="rounded=1;arcSize=10;dashed=1;fillColor=none;gradientColor=none;dashPattern=1 1;strokeWidth=2;" parent="1" vertex="1">
                    <mxGeometry x="30" y="495" width="130" height="95" as="geometry"/>
                </mxCell>
                <mxCell id="X6bT7JPRpj6-fWHqidIX-22" value="" style="rounded=1;arcSize=10;dashed=1;fillColor=none;gradientColor=none;dashPattern=1 1;strokeWidth=2;" parent="1" vertex="1">
                    <mxGeometry x="170" y="495" width="130" height="95" as="geometry"/>
                </mxCell>
                <mxCell id="X6bT7JPRpj6-fWHqidIX-23" value="" style="rounded=1;arcSize=10;dashed=1;fillColor=none;gradientColor=none;dashPattern=1 1;strokeWidth=2;" parent="1" vertex="1">
                    <mxGeometry x="320" y="496.5" width="136" height="95" as="geometry"/>
                </mxCell>
                <mxCell id="X6bT7JPRpj6-fWHqidIX-24" value="CoreE Web&lt;br&gt;&amp;nbsp;Services" style="text;html=1;strokeColor=none;fillColor=none;align=center;verticalAlign=middle;whiteSpace=wrap;rounded=0;" parent="1" vertex="1">
                    <mxGeometry x="33" y="501" width="120" height="20" as="geometry"/>
                </mxCell>
                <mxCell id="X6bT7JPRpj6-fWHqidIX-25" value="Immunotec Epic&lt;br&gt;&amp;nbsp;Database" style="text;html=1;strokeColor=none;fillColor=none;align=center;verticalAlign=middle;whiteSpace=wrap;rounded=0;" parent="1" vertex="1">
                    <mxGeometry x="155" y="501" width="150" height="20" as="geometry"/>
                </mxCell>
                <mxCell id="X6bT7JPRpj6-fWHqidIX-26" value="Exigo Web &lt;br&gt;Services" style="text;html=1;strokeColor=none;fillColor=none;align=center;verticalAlign=middle;whiteSpace=wrap;rounded=0;" parent="1" vertex="1">
                    <mxGeometry x="329" y="501" width="120" height="20" as="geometry"/>
                </mxCell>
                <mxCell id="X6bT7JPRpj6-fWHqidIX-27" value="" style="html=1;dashed=0;whitespace=wrap;fillColor=#2875E2;strokeColor=#ffffff;points=[[0.005,0.63,0],[0.1,0.2,0],[0.9,0.2,0],[0.5,0,0],[0.995,0.63,0],[0.72,0.99,0],[0.5,1,0],[0.28,0.99,0]];shape=mxgraph.kubernetes.icon;prIcon=api" parent="1" vertex="1">
                    <mxGeometry x="68" y="526" width="50" height="48" as="geometry"/>
                </mxCell>
                <mxCell id="X6bT7JPRpj6-fWHqidIX-28" value="" style="html=1;dashed=0;whitespace=wrap;fillColor=#2875E2;strokeColor=#ffffff;points=[[0.005,0.63,0],[0.1,0.2,0],[0.9,0.2,0],[0.5,0,0],[0.995,0.63,0],[0.72,0.99,0],[0.5,1,0],[0.28,0.99,0]];shape=mxgraph.kubernetes.icon;prIcon=api" parent="1" vertex="1">
                    <mxGeometry x="360" y="526" width="50" height="48" as="geometry"/>
                </mxCell>
                <mxCell id="X6bT7JPRpj6-fWHqidIX-29" value="" style="image;html=1;image=img/lib/clip_art/computers/Database_128x128.png" parent="1" vertex="1">
                    <mxGeometry x="210" y="520" width="40" height="70" as="geometry"/>
                </mxCell>
                <mxCell id="X6bT7JPRpj6-fWHqidIX-36" value="" style="rounded=1;arcSize=10;dashed=1;fillColor=none;gradientColor=none;dashPattern=1 1;strokeWidth=2;" parent="1" vertex="1">
                    <mxGeometry x="660.5" y="24" width="130.5" height="50" as="geometry"/>
                </mxCell>
                <mxCell id="X6bT7JPRpj6-fWHqidIX-39" value="Mexico" style="text;html=1;strokeColor=none;fillColor=none;align=center;verticalAlign=middle;whiteSpace=wrap;rounded=0;fontSize=9;" parent="1" vertex="1">
                    <mxGeometry x="660.5" y="24" width="40" height="20" as="geometry"/>
                </mxCell>
                <mxCell id="X6bT7JPRpj6-fWHqidIX-40" value="" style="html=1;dashed=0;whitespace=wrap;fillColor=#2875E2;strokeColor=#ffffff;points=[[0.005,0.63,0],[0.1,0.2,0],[0.9,0.2,0],[0.5,0,0],[0.995,0.63,0],[0.72,0.99,0],[0.5,1,0],[0.28,0.99,0]];shape=mxgraph.kubernetes.icon;prIcon=api" parent="1" vertex="1">
                    <mxGeometry x="705.75" y="26" width="40" height="48" as="geometry"/>
                </mxCell>
                <mxCell id="X6bT7JPRpj6-fWHqidIX-41" value="" style="rounded=1;arcSize=10;dashed=1;fillColor=none;gradientColor=none;dashPattern=1 1;strokeWidth=2;" parent="1" vertex="1">
                    <mxGeometry x="660.5" y="93.5" width="130.5" height="50" as="geometry"/>
                </mxCell>
                <mxCell id="X6bT7JPRpj6-fWHqidIX-42" value="Guatemala" style="text;html=1;strokeColor=none;fillColor=none;align=center;verticalAlign=middle;whiteSpace=wrap;rounded=0;fontSize=9;" parent="1" vertex="1">
                    <mxGeometry x="665.75" y="93.5" width="40" height="20" as="geometry"/>
                </mxCell>
                <mxCell id="X6bT7JPRpj6-fWHqidIX-43" value="" style="html=1;dashed=0;whitespace=wrap;fillColor=#2875E2;strokeColor=#ffffff;points=[[0.005,0.63,0],[0.1,0.2,0],[0.9,0.2,0],[0.5,0,0],[0.995,0.63,0],[0.72,0.99,0],[0.5,1,0],[0.28,0.99,0]];shape=mxgraph.kubernetes.icon;prIcon=api" parent="1" vertex="1">
                    <mxGeometry x="705.75" y="95.5" width="40" height="48" as="geometry"/>
                </mxCell>
                <mxCell id="X6bT7JPRpj6-fWHqidIX-44" value="" style="rounded=1;arcSize=10;dashed=1;fillColor=none;gradientColor=none;dashPattern=1 1;strokeWidth=2;" parent="1" vertex="1">
                    <mxGeometry x="660.5" y="163.5" width="130.5" height="50" as="geometry"/>
                </mxCell>
                <mxCell id="X6bT7JPRpj6-fWHqidIX-45" value="Colombia" style="text;html=1;strokeColor=none;fillColor=none;align=center;verticalAlign=middle;whiteSpace=wrap;rounded=0;fontSize=9;" parent="1" vertex="1">
                    <mxGeometry x="665.75" y="163.5" width="40" height="20" as="geometry"/>
                </mxCell>
                <mxCell id="X6bT7JPRpj6-fWHqidIX-46" value="" style="html=1;dashed=0;whitespace=wrap;fillColor=#2875E2;strokeColor=#ffffff;points=[[0.005,0.63,0],[0.1,0.2,0],[0.9,0.2,0],[0.5,0,0],[0.995,0.63,0],[0.72,0.99,0],[0.5,1,0],[0.28,0.99,0]];shape=mxgraph.kubernetes.icon;prIcon=api" parent="1" vertex="1">
                    <mxGeometry x="705.75" y="165.5" width="40" height="48" as="geometry"/>
                </mxCell>
                <mxCell id="X6bT7JPRpj6-fWHqidIX-47" value="" style="rounded=1;arcSize=10;dashed=1;fillColor=none;gradientColor=none;dashPattern=1 1;strokeWidth=2;" parent="1" vertex="1">
                    <mxGeometry x="660.5" y="244" width="130.5" height="50" as="geometry"/>
                </mxCell>
                <mxCell id="X6bT7JPRpj6-fWHqidIX-48" value="Peru" style="text;html=1;strokeColor=none;fillColor=none;align=center;verticalAlign=middle;whiteSpace=wrap;rounded=0;fontSize=9;" parent="1" vertex="1">
                    <mxGeometry x="660.5" y="244" width="40" height="20" as="geometry"/>
                </mxCell>
                <mxCell id="X6bT7JPRpj6-fWHqidIX-49" value="" style="html=1;dashed=0;whitespace=wrap;fillColor=#2875E2;strokeColor=#ffffff;points=[[0.005,0.63,0],[0.1,0.2,0],[0.9,0.2,0],[0.5,0,0],[0.995,0.63,0],[0.72,0.99,0],[0.5,1,0],[0.28,0.99,0]];shape=mxgraph.kubernetes.icon;prIcon=api" parent="1" vertex="1">
                    <mxGeometry x="705.75" y="246" width="40" height="48" as="geometry"/>
                </mxCell>
                <mxCell id="X6bT7JPRpj6-fWHqidIX-50" value="" style="rounded=1;arcSize=10;dashed=1;fillColor=none;gradientColor=none;dashPattern=1 1;strokeWidth=2;" parent="1" vertex="1">
                    <mxGeometry x="477" y="495" width="120" height="95" as="geometry"/>
                </mxCell>
                <mxCell id="X6bT7JPRpj6-fWHqidIX-51" value="ZenDesk Web&lt;br&gt;&amp;nbsp;Services" style="text;html=1;strokeColor=none;fillColor=none;align=center;verticalAlign=middle;whiteSpace=wrap;rounded=0;" parent="1" vertex="1">
                    <mxGeometry x="468.75" y="501" width="136.5" height="20" as="geometry"/>
                </mxCell>
                <mxCell id="X6bT7JPRpj6-fWHqidIX-52" value="" style="html=1;dashed=0;whitespace=wrap;fillColor=#2875E2;strokeColor=#ffffff;points=[[0.005,0.63,0],[0.1,0.2,0],[0.9,0.2,0],[0.5,0,0],[0.995,0.63,0],[0.72,0.99,0],[0.5,1,0],[0.28,0.99,0]];shape=mxgraph.kubernetes.icon;prIcon=api" parent="1" vertex="1">
                    <mxGeometry x="512" y="526" width="50" height="48" as="geometry"/>
                </mxCell>
                <mxCell id="X6bT7JPRpj6-fWHqidIX-59" value="Invoicing Services" style="text;html=1;strokeColor=none;fillColor=none;align=center;verticalAlign=middle;whiteSpace=wrap;rounded=0;fontSize=9;" parent="1" vertex="1">
                    <mxGeometry x="680.75" width="90" height="20" as="geometry"/>
                </mxCell>
                <mxCell id="X6bT7JPRpj6-fWHqidIX-60" value="" style="rounded=1;arcSize=10;dashed=1;fillColor=none;gradientColor=none;dashPattern=1 1;strokeWidth=2;" parent="1" vertex="1">
                    <mxGeometry x="660.5" y="315" width="130.5" height="50" as="geometry"/>
                </mxCell>
                <mxCell id="X6bT7JPRpj6-fWHqidIX-61" value="Ecuador" style="text;html=1;strokeColor=none;fillColor=none;align=center;verticalAlign=middle;whiteSpace=wrap;rounded=0;fontSize=9;" parent="1" vertex="1">
                    <mxGeometry x="665.75" y="317" width="40" height="20" as="geometry"/>
                </mxCell>
                <mxCell id="X6bT7JPRpj6-fWHqidIX-62" value="" style="html=1;dashed=0;whitespace=wrap;fillColor=#2875E2;strokeColor=#ffffff;points=[[0.005,0.63,0],[0.1,0.2,0],[0.9,0.2,0],[0.5,0,0],[0.995,0.63,0],[0.72,0.99,0],[0.5,1,0],[0.28,0.99,0]];shape=mxgraph.kubernetes.icon;prIcon=api" parent="1" vertex="1">
                    <mxGeometry x="705.75" y="317" width="40" height="48" as="geometry"/>
                </mxCell>
                <mxCell id="X6bT7JPRpj6-fWHqidIX-65" value="&lt;font style=&quot;font-size: 12px&quot;&gt;S3&lt;/font&gt;" style="text;html=1;strokeColor=none;fillColor=none;align=center;verticalAlign=middle;whiteSpace=wrap;rounded=0;fontSize=9;" parent="1" vertex="1">
                    <mxGeometry x="425" y="309" width="40" height="20" as="geometry"/>
                </mxCell>
                <mxCell id="10" style="edgeStyle=elbowEdgeStyle;html=1;entryX=0.5;entryY=0;entryDx=0;entryDy=0;entryPerimeter=0;" parent="1" edge="1">
                    <mxGeometry relative="1" as="geometry">
                        <mxPoint x="523" y="294" as="sourcePoint"/>
                        <mxPoint x="523.5" y="319" as="targetPoint"/>
                    </mxGeometry>
                </mxCell>
                <mxCell id="X6bT7JPRpj6-fWHqidIX-73" value="" style="points=[[0,0,0],[0.25,0,0],[0.5,0,0],[0.75,0,0],[1,0,0],[0,1,0],[0.25,1,0],[0.5,1,0],[0.75,1,0],[1,1,0],[0,0.25,0],[0,0.5,0],[0,0.75,0],[1,0.25,0],[1,0.5,0],[1,0.75,0]];outlineConnect=0;fontColor=#232F3E;gradientColor=#4D72F3;gradientDirection=north;fillColor=#3334B9;strokeColor=#ffffff;dashed=0;verticalLabelPosition=bottom;verticalAlign=top;align=center;html=1;fontSize=12;fontStyle=0;aspect=fixed;shape=mxgraph.aws4.resourceIcon;resIcon=mxgraph.aws4.rds;" parent="1" vertex="1">
                    <mxGeometry x="502.5" y="249" width="45" height="45" as="geometry"/>
                </mxCell>
                <mxCell id="6KM3-YVnB-ED_RydzlPr-20" style="edgeStyle=orthogonalEdgeStyle;rounded=0;orthogonalLoop=1;jettySize=auto;html=1;" parent="1" source="X6bT7JPRpj6-fWHqidIX-74" target="X6bT7JPRpj6-fWHqidIX-77" edge="1">
                    <mxGeometry relative="1" as="geometry"/>
                </mxCell>
                <mxCell id="X6bT7JPRpj6-fWHqidIX-74" value="" style="points=[[0,0,0],[0.25,0,0],[0.5,0,0],[0.75,0,0],[1,0,0],[0,1,0],[0.25,1,0],[0.5,1,0],[0.75,1,0],[1,1,0],[0,0.25,0],[0,0.5,0],[0,0.75,0],[1,0.25,0],[1,0.5,0],[1,0.75,0]];outlineConnect=0;fontColor=#232F3E;gradientColor=#945DF2;gradientDirection=north;fillColor=#5A30B5;strokeColor=#ffffff;dashed=0;verticalLabelPosition=bottom;verticalAlign=top;align=center;html=1;fontSize=12;fontStyle=0;aspect=fixed;shape=mxgraph.aws4.resourceIcon;resIcon=mxgraph.aws4.elastic_load_balancing;" parent="1" vertex="1">
                    <mxGeometry x="190" y="198.5" width="78" height="78" as="geometry"/>
                </mxCell>
                <mxCell id="X6bT7JPRpj6-fWHqidIX-75" value="" style="points=[[0,0,0],[0.25,0,0],[0.5,0,0],[0.75,0,0],[1,0,0],[0,1,0],[0.25,1,0],[0.5,1,0],[0.75,1,0],[1,1,0],[0,0.25,0],[0,0.5,0],[0,0.75,0],[1,0.25,0],[1,0.5,0],[1,0.75,0]];outlineConnect=0;fontColor=#232F3E;gradientColor=#60A337;gradientDirection=north;fillColor=#277116;strokeColor=#ffffff;dashed=0;verticalLabelPosition=bottom;verticalAlign=top;align=center;html=1;fontSize=12;fontStyle=0;aspect=fixed;shape=mxgraph.aws4.resourceIcon;resIcon=mxgraph.aws4.s3;" parent="1" vertex="1">
                    <mxGeometry x="410" y="309" width="46" height="46" as="geometry"/>
                </mxCell>
                <mxCell id="X6bT7JPRpj6-fWHqidIX-76" value="&lt;span style=&quot;font-size: 12px&quot;&gt;RDS&lt;/span&gt;" style="text;html=1;strokeColor=none;fillColor=none;align=center;verticalAlign=middle;whiteSpace=wrap;rounded=0;fontSize=9;" parent="1" vertex="1">
                    <mxGeometry x="467" y="245" width="40" height="20" as="geometry"/>
                </mxCell>
                <mxCell id="6KM3-YVnB-ED_RydzlPr-3" style="edgeStyle=orthogonalEdgeStyle;rounded=0;orthogonalLoop=1;jettySize=auto;html=1;entryX=0.5;entryY=0;entryDx=0;entryDy=0;" parent="1" source="X6bT7JPRpj6-fWHqidIX-77" target="X6bT7JPRpj6-fWHqidIX-20" edge="1">
                    <mxGeometry relative="1" as="geometry">
                        <Array as="points">
                            <mxPoint x="366" y="420"/>
                            <mxPoint x="95" y="420"/>
                        </Array>
                    </mxGeometry>
                </mxCell>
                <mxCell id="6KM3-YVnB-ED_RydzlPr-4" style="edgeStyle=orthogonalEdgeStyle;rounded=0;orthogonalLoop=1;jettySize=auto;html=1;" parent="1" source="X6bT7JPRpj6-fWHqidIX-77" target="X6bT7JPRpj6-fWHqidIX-73" edge="1">
                    <mxGeometry relative="1" as="geometry">
                        <Array as="points">
                            <mxPoint x="446" y="260"/>
                            <mxPoint x="446" y="271"/>
                        </Array>
                    </mxGeometry>
                </mxCell>
                <mxCell id="6KM3-YVnB-ED_RydzlPr-5" style="edgeStyle=orthogonalEdgeStyle;rounded=0;orthogonalLoop=1;jettySize=auto;html=1;entryX=0;entryY=0.5;entryDx=0;entryDy=0;entryPerimeter=0;" parent="1" source="X6bT7JPRpj6-fWHqidIX-77" target="X6bT7JPRpj6-fWHqidIX-80" edge="1">
                    <mxGeometry relative="1" as="geometry">
                        <Array as="points">
                            <mxPoint x="366" y="162"/>
                        </Array>
                    </mxGeometry>
                </mxCell>
                <mxCell id="6KM3-YVnB-ED_RydzlPr-6" style="edgeStyle=orthogonalEdgeStyle;rounded=0;orthogonalLoop=1;jettySize=auto;html=1;entryX=0;entryY=0.5;entryDx=0;entryDy=0;entryPerimeter=0;" parent="1" source="X6bT7JPRpj6-fWHqidIX-77" target="X6bT7JPRpj6-fWHqidIX-75" edge="1">
                    <mxGeometry relative="1" as="geometry">
                        <Array as="points">
                            <mxPoint x="390" y="332"/>
                        </Array>
                        <mxPoint x="410" y="357" as="targetPoint"/>
                    </mxGeometry>
                </mxCell>
                <mxCell id="6KM3-YVnB-ED_RydzlPr-9" style="edgeStyle=orthogonalEdgeStyle;rounded=0;orthogonalLoop=1;jettySize=auto;html=1;" parent="1" source="X6bT7JPRpj6-fWHqidIX-77" target="X6bT7JPRpj6-fWHqidIX-22" edge="1">
                    <mxGeometry relative="1" as="geometry">
                        <Array as="points">
                            <mxPoint x="366" y="420"/>
                            <mxPoint x="240" y="420"/>
                        </Array>
                    </mxGeometry>
                </mxCell>
                <mxCell id="6KM3-YVnB-ED_RydzlPr-10" style="edgeStyle=orthogonalEdgeStyle;rounded=0;orthogonalLoop=1;jettySize=auto;html=1;" parent="1" source="X6bT7JPRpj6-fWHqidIX-77" target="X6bT7JPRpj6-fWHqidIX-23" edge="1">
                    <mxGeometry relative="1" as="geometry">
                        <Array as="points">
                            <mxPoint x="366" y="420"/>
                            <mxPoint x="388" y="420"/>
                        </Array>
                    </mxGeometry>
                </mxCell>
                <mxCell id="6KM3-YVnB-ED_RydzlPr-11" style="edgeStyle=orthogonalEdgeStyle;rounded=0;orthogonalLoop=1;jettySize=auto;html=1;entryX=0.5;entryY=0;entryDx=0;entryDy=0;" parent="1" source="X6bT7JPRpj6-fWHqidIX-77" target="X6bT7JPRpj6-fWHqidIX-50" edge="1">
                    <mxGeometry relative="1" as="geometry">
                        <Array as="points">
                            <mxPoint x="366" y="420"/>
                            <mxPoint x="537" y="420"/>
                        </Array>
                    </mxGeometry>
                </mxCell>
                <mxCell id="6KM3-YVnB-ED_RydzlPr-13" style="edgeStyle=orthogonalEdgeStyle;rounded=0;orthogonalLoop=1;jettySize=auto;html=1;entryX=0;entryY=0.5;entryDx=0;entryDy=0;" parent="1" source="X6bT7JPRpj6-fWHqidIX-77" target="X6bT7JPRpj6-fWHqidIX-36" edge="1">
                    <mxGeometry relative="1" as="geometry">
                        <Array as="points">
                            <mxPoint x="600" y="238"/>
                            <mxPoint x="600" y="49"/>
                        </Array>
                    </mxGeometry>
                </mxCell>
                <mxCell id="6KM3-YVnB-ED_RydzlPr-14" style="edgeStyle=orthogonalEdgeStyle;rounded=0;orthogonalLoop=1;jettySize=auto;html=1;entryX=0;entryY=0.5;entryDx=0;entryDy=0;" parent="1" source="X6bT7JPRpj6-fWHqidIX-77" target="X6bT7JPRpj6-fWHqidIX-41" edge="1">
                    <mxGeometry relative="1" as="geometry">
                        <Array as="points">
                            <mxPoint x="600" y="238"/>
                            <mxPoint x="600" y="119"/>
                        </Array>
                    </mxGeometry>
                </mxCell>
                <mxCell id="6KM3-YVnB-ED_RydzlPr-17" style="edgeStyle=orthogonalEdgeStyle;rounded=0;orthogonalLoop=1;jettySize=auto;html=1;entryX=0;entryY=0.5;entryDx=0;entryDy=0;" parent="1" source="X6bT7JPRpj6-fWHqidIX-77" target="X6bT7JPRpj6-fWHqidIX-44" edge="1">
                    <mxGeometry relative="1" as="geometry">
                        <Array as="points">
                            <mxPoint x="600" y="238"/>
                            <mxPoint x="600" y="189"/>
                        </Array>
                    </mxGeometry>
                </mxCell>
                <mxCell id="6KM3-YVnB-ED_RydzlPr-18" style="edgeStyle=orthogonalEdgeStyle;rounded=0;orthogonalLoop=1;jettySize=auto;html=1;entryX=0;entryY=0.5;entryDx=0;entryDy=0;" parent="1" source="X6bT7JPRpj6-fWHqidIX-77" target="X6bT7JPRpj6-fWHqidIX-47" edge="1">
                    <mxGeometry relative="1" as="geometry">
                        <Array as="points">
                            <mxPoint x="600" y="238"/>
                            <mxPoint x="600" y="269"/>
                        </Array>
                    </mxGeometry>
                </mxCell>
                <mxCell id="6KM3-YVnB-ED_RydzlPr-19" style="edgeStyle=orthogonalEdgeStyle;rounded=0;orthogonalLoop=1;jettySize=auto;html=1;entryX=0;entryY=0.5;entryDx=0;entryDy=0;" parent="1" source="X6bT7JPRpj6-fWHqidIX-77" target="X6bT7JPRpj6-fWHqidIX-60" edge="1">
                    <mxGeometry relative="1" as="geometry">
                        <Array as="points">
                            <mxPoint x="600" y="238"/>
                            <mxPoint x="600" y="340"/>
                        </Array>
                    </mxGeometry>
                </mxCell>
                <mxCell id="X6bT7JPRpj6-fWHqidIX-77" value="" style="points=[[0,0,0],[0.25,0,0],[0.5,0,0],[0.75,0,0],[1,0,0],[0,1,0],[0.25,1,0],[0.5,1,0],[0.75,1,0],[1,1,0],[0,0.25,0],[0,0.5,0],[0,0.75,0],[1,0.25,0],[1,0.5,0],[1,0.75,0]];outlineConnect=0;fontColor=#232F3E;gradientColor=#F78E04;gradientDirection=north;fillColor=#D05C17;strokeColor=#ffffff;dashed=0;verticalLabelPosition=bottom;verticalAlign=top;align=center;html=1;fontSize=12;fontStyle=0;aspect=fixed;shape=mxgraph.aws4.resourceIcon;resIcon=mxgraph.aws4.ec2;" parent="1" vertex="1">
                    <mxGeometry x="327" y="198.5" width="78" height="78" as="geometry"/>
                </mxCell>
                <mxCell id="X6bT7JPRpj6-fWHqidIX-80" value="" style="points=[[0,0,0],[0.25,0,0],[0.5,0,0],[0.75,0,0],[1,0,0],[0,1,0],[0.25,1,0],[0.5,1,0],[0.75,1,0],[1,1,0],[0,0.25,0],[0,0.5,0],[0,0.75,0],[1,0.25,0],[1,0.5,0],[1,0.75,0]];outlineConnect=0;fontColor=#232F3E;gradientColor=#4D72F3;gradientDirection=north;fillColor=#3334B9;strokeColor=#ffffff;dashed=0;verticalLabelPosition=bottom;verticalAlign=top;align=center;html=1;fontSize=12;fontStyle=0;aspect=fixed;shape=mxgraph.aws4.resourceIcon;resIcon=mxgraph.aws4.elasticache;" parent="1" vertex="1">
                    <mxGeometry x="500" y="137" width="50" height="50" as="geometry"/>
                </mxCell>
                <mxCell id="8" value="" style="points=[[0,0,0],[0.25,0,0],[0.5,0,0],[0.75,0,0],[1,0,0],[0,1,0],[0.25,1,0],[0.5,1,0],[0.75,1,0],[1,1,0],[0,0.25,0],[0,0.5,0],[0,0.75,0],[1,0.25,0],[1,0.5,0],[1,0.75,0]];outlineConnect=0;fontColor=#232F3E;gradientColor=#4D72F3;gradientDirection=north;fillColor=#3334B9;strokeColor=#ffffff;dashed=0;verticalLabelPosition=bottom;verticalAlign=top;align=center;html=1;fontSize=12;fontStyle=0;aspect=fixed;shape=mxgraph.aws4.resourceIcon;resIcon=mxgraph.aws4.rds;" parent="1" vertex="1">
                    <mxGeometry x="500" y="319" width="41" height="41" as="geometry"/>
                </mxCell>
                <mxCell id="9" value="&lt;span style=&quot;font-size: 12px&quot;&gt;RDS Replica (reporting)&lt;/span&gt;" style="text;html=1;strokeColor=none;fillColor=none;align=center;verticalAlign=middle;whiteSpace=wrap;rounded=0;fontSize=9;" parent="1" vertex="1">
                    <mxGeometry x="501" y="373" width="40" height="20" as="geometry"/>
                </mxCell>
                <mxCell id="11" value="" style="rounded=1;arcSize=10;dashed=1;fillColor=none;gradientColor=none;dashPattern=1 1;strokeWidth=2;" parent="1" vertex="1">
                    <mxGeometry x="660.5" y="385" width="130.5" height="50" as="geometry"/>
                </mxCell>
                <mxCell id="12" value="Bolivia" style="text;html=1;strokeColor=none;fillColor=none;align=center;verticalAlign=middle;whiteSpace=wrap;rounded=0;fontSize=9;" parent="1" vertex="1">
                    <mxGeometry x="665.75" y="385" width="40" height="20" as="geometry"/>
                </mxCell>
                <mxCell id="13" value="" style="html=1;dashed=0;whitespace=wrap;fillColor=#2875E2;strokeColor=#ffffff;points=[[0.005,0.63,0],[0.1,0.2,0],[0.9,0.2,0],[0.5,0,0],[0.995,0.63,0],[0.72,0.99,0],[0.5,1,0],[0.28,0.99,0]];shape=mxgraph.kubernetes.icon;prIcon=api" parent="1" vertex="1">
                    <mxGeometry x="705.75" y="386" width="40" height="48" as="geometry"/>
                </mxCell>
                <mxCell id="14" style="edgeStyle=orthogonalEdgeStyle;rounded=0;orthogonalLoop=1;jettySize=auto;html=1;entryX=0;entryY=0.5;entryDx=0;entryDy=0;" parent="1" edge="1">
                    <mxGeometry relative="1" as="geometry">
                        <Array as="points">
                            <mxPoint x="600" y="205"/>
                            <mxPoint x="600" y="410"/>
                        </Array>
                        <mxPoint x="600" y="205" as="sourcePoint"/>
                        <mxPoint x="660.25" y="410" as="targetPoint"/>
                    </mxGeometry>
                </mxCell>
                <mxCell id="15" value="" style="rounded=1;arcSize=10;dashed=1;fillColor=none;gradientColor=none;dashPattern=1 1;strokeWidth=2;" parent="1" vertex="1">
                    <mxGeometry x="618.5" y="495" width="120" height="95" as="geometry"/>
                </mxCell>
                <mxCell id="16" value="" style="html=1;dashed=0;whitespace=wrap;fillColor=#2875E2;strokeColor=#ffffff;points=[[0.005,0.63,0],[0.1,0.2,0],[0.9,0.2,0],[0.5,0,0],[0.995,0.63,0],[0.72,0.99,0],[0.5,1,0],[0.28,0.99,0]];shape=mxgraph.kubernetes.icon;prIcon=api" parent="1" vertex="1">
                    <mxGeometry x="652.5" y="526" width="50" height="48" as="geometry"/>
                </mxCell>
                <mxCell id="17" value="Hubspot Web&lt;br&gt;Services" style="text;html=1;strokeColor=none;fillColor=none;align=center;verticalAlign=middle;whiteSpace=wrap;rounded=0;" parent="1" vertex="1">
                    <mxGeometry x="608.25" y="501" width="136.5" height="20" as="geometry"/>
                </mxCell>
                <mxCell id="18" style="edgeStyle=orthogonalEdgeStyle;rounded=0;orthogonalLoop=1;jettySize=auto;html=1;exitX=0.5;exitY=1;exitDx=0;exitDy=0;exitPerimeter=0;entryX=0.5;entryY=0;entryDx=0;entryDy=0;" parent="1" edge="1" target="15">
                    <mxGeometry relative="1" as="geometry">
                        <Array as="points">
                            <mxPoint x="362" y="280"/>
                            <mxPoint x="366" y="280"/>
                            <mxPoint x="366" y="419"/>
                            <mxPoint x="647" y="419"/>
                            <mxPoint x="647" y="445"/>
                            <mxPoint x="679" y="445"/>
                        </Array>
                        <mxPoint x="362" y="275.5" as="sourcePoint"/>
                        <mxPoint x="685" y="490" as="targetPoint"/>
                    </mxGeometry>
                </mxCell>
            </root>
        </mxGraphModel>
    </diagram>
</mxfile>